PathFileType	4	(X/Y/Z)	C:\Users\Basilio\Documents\Thesis Gigler\squatting_fais\c3dfiles\054\SLS_front_pre1\markers_experimental.trc
DataRate	CameraRate	NumFrames	NumMarkers	Units	OrigDataRate	OrigDataStartFrame	OrigNumFrames
200.000000	200.000000	4	61	mm	200.000000	167	1342
Frame#	Time	FHD			LBHD			RBHD			C7			T10			CLAV			LSHO			LUUPA			LMUPA			LDUPA			LLEP			LMEP			LRAD			LUL			LRFIN			RSHO			RUPA1			RMUPA			RDUPA			RLEP			RMEP			RRAD			RUL			RUFIN			LASI			RASI			USACR			LSACR			RSACR			LTHI1			LTHI2			LTHI3			LTHI4			LLFC			LMFC			LTIB1			LTIB2			LTIB3			LTIB4			LLMAL			LMMAL			LHEE			LMT1			LMT2			LMT5			RTHI			RTHI2			RTHI3			RTHI4			RLFC			RMFC			RTIB1			RTIB2			RTIB3			RTIB4			RLMAL			RMMAL			RHEE			RMT1			RMT2			RMT5			
		X1	Y1	Z1	X2	Y2	Z2	X3	Y3	Z3	X4	Y4	Z4	X5	Y5	Z5	X6	Y6	Z6	X7	Y7	Z7	X8	Y8	Z8	X9	Y9	Z9	X10	Y10	Z10	X11	Y11	Z11	X12	Y12	Z12	X13	Y13	Z13	X14	Y14	Z14	X15	Y15	Z15	X16	Y16	Z16	X17	Y17	Z17	X18	Y18	Z18	X19	Y19	Z19	X20	Y20	Z20	X21	Y21	Z21	X22	Y22	Z22	X23	Y23	Z23	X24	Y24	Z24	X25	Y25	Z25	X26	Y26	Z26	X27	Y27	Z27	X28	Y28	Z28	X29	Y29	Z29	X30	Y30	Z30	X31	Y31	Z31	X32	Y32	Z32	X33	Y33	Z33	X34	Y34	Z34	X35	Y35	Z35	X36	Y36	Z36	X37	Y37	Z37	X38	Y38	Z38	X39	Y39	Z39	X40	Y40	Z40	X41	Y41	Z41	X42	Y42	Z42	X43	Y43	Z43	X44	Y44	Z44	X45	Y45	Z45	X46	Y46	Z46	X47	Y47	Z47	X48	Y48	Z48	X49	Y49	Z49	X50	Y50	Z50	X51	Y51	Z51	X52	Y52	Z52	X53	Y53	Z53	X54	Y54	Z54	X55	Y55	Z55	X56	Y56	Z56	X57	Y57	Z57	X58	Y58	Z58	X59	Y59	Z59	X60	Y60	Z60	X61	Y61	Z61	

168	0.835	-227.3042297363282	1790.526611328125	-1048.025268554688	-388.316864013672	1733.017211914063	-1115.593383789063	-403.389862060547	1733.3271484375	-975.948425292969	-431.1058349609376	1560.999267578125	-1030.417236328125	-437.974090576172	1227.31591796875	-1025.150268554688	-284.1976013183594	1510.198852539063	-1039.613525390625	-364.1427917480469	1552.909057617188	-1194.425170898438	-266.0226135253907	1387.594482421875	-1336.883666992188	-225.8790740966797	1415.025268554688	-1339.321166992188	-206.2078247070313	1361.85498046875	-1361.313842773438	-153.0487976074219	1352.154296875	-1374.359741210938	-154.0625	1292.678466796875	-1320.41943359375	113.7372360229492	1324.4091796875	-1362.98876953125	102.5428466796875	1278.738037109375	-1426.648315429688	198.443832397461	1317.119262695313	-1401.216186523438	-340.7255554199219	1555.314697265625	-880.0085449218752	-213.7062072753907	1391.4091796875	-758.1029663085939	-171.1799926757813	1413.2548828125	-763.1119384765626	-153.2327880859375	1357.930908203125	-745.6939086914064	-112.925651550293	1340.677490234375	-745.9919433593751	-126.1686477661133	1291.993774414063	-804.554138183594	163.7149353027344	1330.257446289063	-815.9801025390627	147.594467163086	1278.951171875	-756.3810424804689	242.388656616211	1327.102294921875	-792.0024414062502	-227.2892303466797	1066.681762695313	-1126.919555664063	-251.5661621093751	1080.551635742188	-878.0909423828127	-431.9620971679689	1139.536376953125	-1019.207824707031	-432.4880981445314	1106.9169921875	-1045.737915039063	-437.7232666015626	1107.528686523438	-989.3090820312502	-294.5965576171876	817.4304199218752	-1198.07861328125	-261.4212036132813	739.7600708007814	-1187.040771484375	-214.9752655029297	746.0352783203126	-1177.293212890625	-289.9679260253907	688.4978027343751	-1170.04736328125	-290.3748779296876	534.0665283203126	-1139.656005859375	-274.5942382812501	539.9654541015626	-1002.046813964844	-256.4008178710938	372.3190917968751	-1071.993774414063	-302.2993164062501	322.7683410644532	-1126.744873046875	-263.3488464355469	321.0026855468751	-1101.226440429688	-277.0932922363282	247.2948760986329	-1061.234985351563	-338.6533203125001	114.3311157226563	-1095.186157226563	-310.4693298339844	134.1845703125	-1003.480163574219	-408.9884033203126	104.9876556396485	-1036.997802734375	-199.8045806884766	54.36744689941408	-1015.896667480469	-190.0104217529297	56.30546951293947	-1064.647094726563	-242.2745208740235	43.19269943237305	-1116.762084960938	-231.1302185058594	777.7173461914065	-793.570495605469	-175.9920196533203	739.8376464843751	-792.7785644531252	-145.0531921386719	750.9650268554689	-798.9238281250002	-174.0019073486328	657.3150024414064	-804.1094970703127	-165.4017486572266	573.0115356445314	-805.1857910156252	-117.666374206543	577.8021240234376	-935.394226074219	-121.9132690429688	463.5856323242189	-809.765808105469	-202.542221069336	400.4153137207032	-778.829528808594	-158.4583587646485	387.5034179687501	-787.6553955078127	-149.8596954345703	335.8122863769532	-811.8201293945315	-231.5395965576172	169.9996337890625	-791.7585449218752	-188.0598297119141	177.2156524658203	-877.1462402343752	-294.6823730468751	146.9977264404297	-852.030944824219	-81.3284149169922	82.0308303833008	-853.6684570312502	-77.82781219482423	88.56148529052736	-806.2416992187502	-131.2705230712891	80.8272171020508	-760.1860351562501	
169	0.84	-227.7645874023438	1790.572998046875	-1048.392333984375	-388.9017639160157	1732.972900390625	-1116.021850585938	-404.0587768554689	1733.135131835938	-976.2354125976565	-431.4899291992189	1560.911254882813	-1030.834350585938	-438.3117065429689	1227.218627929688	-1025.62109375	-284.3307495117188	1510.303955078125	-1040.114868164063	-364.6075134277344	1553.017578125	-1194.8134765625	-266.5499267578126	1388.38671875	-1337.43212890625	-227.8585968017579	1415.921875	-1339.61181640625	-206.1825561523438	1363.125366210938	-1362.229736328125	-152.8795471191407	1353.466186523438	-1375.355834960938	-153.395980834961	1293.854125976563	-1321.496704101563	113.8077621459961	1327.002319335938	-1363.768676757813	103.2270050048828	1281.546020507813	-1427.7626953125	198.8781280517579	1320.465454101563	-1401.918334960938	-341.3396911621094	1555.240600585938	-880.6767578125002	-213.9437255859376	1391.8818359375	-758.3839721679689	-171.2933044433594	1414.050659179688	-763.4965209960939	-153.1779937744141	1358.587646484375	-746.0281372070314	-112.8321151733399	1341.502197265625	-746.2633666992189	-125.6501922607422	1292.927368164063	-804.886413574219	163.8779907226563	1332.836669921875	-816.5308837890627	148.4937286376953	1281.36865234375	-757.1704711914064	242.6935577392579	1330.222412109375	-792.676452636719	-227.7313995361329	1066.692016601563	-1127.469482421875	-252.0186462402344	1080.557983398438	-878.5449218750002	-432.2946166992189	1139.546508789063	-1019.606140136719	-432.779510498047	1106.944580078125	-1046.07373046875	-438.0106811523439	1107.543212890625	-989.6414794921877	-294.9656372070313	817.3946533203127	-1198.393432617188	-261.6827392578126	739.7213134765626	-1187.580200195313	-215.3817138671876	746.0310058593751	-1177.520874023438	-290.4331970214844	688.4657592773439	-1170.271484375	-290.1117553710938	533.8091430664064	-1139.564208984375	-274.6657104492188	539.9783325195314	-1002.27734375	-256.7545166015626	372.3117370605469	-1072.110961914063	-302.4220275878907	322.8120727539063	-1126.791015625	-263.4728088378907	321.0411376953126	-1101.270385742188	-277.2625427246094	247.3634033203126	-1061.2880859375	-338.7145690917969	114.3102340698242	-1095.17578125	-310.5106811523438	134.1771240234375	-1003.507934570313	-409.0174865722657	105.0339813232422	-1037.029052734375	-199.7200164794922	54.41860580444337	-1015.902404785156	-190.0203399658203	56.34230422973634	-1064.646240234375	-242.2670288085938	43.19482421875001	-1116.72119140625	-231.0922546386719	777.7176513671877	-794.2136230468752	-175.6171875	739.9272460937501	-793.907409667969	-144.6745910644532	751.0010986328126	-800.0507812500002	-173.8327789306641	657.4880981445314	-805.038757324219	-164.9936218261719	572.8463745117189	-806.2631835937502	-117.7767791748047	578.0023193359376	-936.6691894531252	-120.8113708496094	463.743133544922	-811.4565429687502	-200.9826202392579	399.9313354492189	-780.1130981445315	-156.7970275878907	387.4806518554689	-789.2432250976565	-147.8750305175782	335.7617797851563	-813.610046386719	-228.1849212646485	169.4200134277344	-793.4456787109377	-185.2212677001953	177.0597534179688	-879.123962402344	-291.5252990722657	146.116195678711	-853.5186157226565	-77.97319793701173	82.33634185791017	-856.2984008789065	-74.4384002685547	88.75130462646486	-808.5921630859377	-127.3644332885742	80.47383117675783	-762.5889282226564	
170	0.845	-228.4270782470704	1790.618896484375	-1048.667358398438	-389.4105834960939	1732.958251953125	-1116.434692382813	-404.6163330078126	1732.992919921875	-976.5234375000002	-431.8600158691407	1560.882690429688	-1031.299072265625	-438.657928466797	1227.209350585938	-1026.083374023438	-284.5971679687501	1510.339599609375	-1040.537963867188	-365.0458374023438	1553.026977539063	-1195.129150390625	-266.3937683105469	1389.605102539063	-1338.257080078125	-226.6544647216797	1417.15966796875	-1340.857421875	-206.0350646972657	1364.2197265625	-1363.294189453125	-152.9202270507813	1354.901977539063	-1376.440063476563	-153.0448608398438	1295.024291992188	-1322.795166015625	113.6884231567383	1329.256225585938	-1364.58349609375	103.8254699707032	1284.388305664063	-1428.796508789063	199.0881958007813	1323.847290039063	-1402.6201171875	-341.6673583984376	1555.193115234375	-881.1494750976565	-213.9933319091797	1392.64501953125	-758.6945190429689	-171.3606719970703	1414.752807617188	-764.0214843750001	-153.2062072753907	1359.313110351563	-746.3112182617189	-112.5642700195313	1342.495483398438	-746.6870117187501	-125.4860610961914	1293.635986328125	-805.1499023437502	164.2593383789063	1335.427368164063	-817.265808105469	148.9878387451172	1283.707275390625	-757.6573486328126	242.8505859375001	1333.11083984375	-793.314147949219	-228.1061706542969	1066.732421875	-1127.893798828125	-252.3429107666016	1080.52197265625	-878.9405517578127	-432.7980041503907	1139.58349609375	-1019.792175292969	-433.1770019531251	1106.89453125	-1046.478149414063	-438.2693786621095	1107.503051757813	-989.9959106445315	-295.4004821777344	817.4029541015627	-1198.756958007813	-262.1342468261719	739.7395629882814	-1188.349609375	-215.8083190917969	746.0335693359376	-1177.807861328125	-290.7552185058594	688.4447021484376	-1170.618530273438	-290.5090637207032	533.8399658203126	-1139.921752929688	-275.1761779785157	539.9677124023439	-1002.385559082031	-256.9722900390626	372.3523254394532	-1072.140869140625	-302.6935119628907	322.7236328125001	-1126.818725585938	-263.6209716796876	321.1170959472657	-1101.300537109375	-277.3824157714844	247.4130249023438	-1061.352416992188	-338.7442932128907	114.251579284668	-1095.156494140625	-310.5527038574219	134.171859741211	-1003.479187011719	-408.8101806640626	104.9059219360352	-1037.2802734375	-199.7797393798829	54.40931701660158	-1015.897277832031	-190.04931640625	56.38811492919923	-1064.602905273438	-242.2683868408204	43.22081375122071	-1116.74853515625	-231.1466979980469	777.6345825195315	-795.095886230469	-175.5767517089844	739.8977661132814	-794.7572021484377	-144.7116241455078	751.0147705078126	-800.990905761719	-173.301513671875	657.4135131835939	-806.3892211914065	-164.6967010498047	572.8117675781251	-807.596618652344	-117.2661361694336	578.0736694335939	-938.0435791015627	-119.6613998413086	463.8834533691407	-812.908142089844	-199.134750366211	399.6311340332032	-781.5246582031252	-155.1777801513672	387.3565979003907	-790.769470214844	-145.8638305664063	335.7319641113282	-815.2774658203127	-224.930648803711	168.7995910644532	-795.0474853515627	-182.5625610351563	176.7926940917969	-880.873229980469	-288.4754028320313	145.5118865966797	-854.9495239257815	-74.65095520019533	82.70621490478517	-858.9277343750002	-70.89805603027345	88.83908081054689	-811.0815429687502	-123.6541900634766	80.16072845458986	-764.8484497070314	
171	0.85	-228.7869110107422	1790.712890625	-1048.977783203125	-389.9397277832032	1732.953491210938	-1116.776977539063	-405.0994262695314	1732.865478515625	-976.9063110351565	-432.2760620117189	1560.828979492188	-1031.741333007813	-438.913543701172	1227.084716796875	-1026.494506835938	-284.8262939453126	1510.37646484375	-1040.946411132813	-365.3660583496094	1552.964721679688	-1195.359619140625	-266.3443603515626	1390.37451171875	-1339.195190429688	-226.3009643554688	1418.188842773438	-1341.410278320313	-206.1991577148438	1365.451416015625	-1364.147216796875	-152.9698028564453	1356.298095703125	-1377.268310546875	-153.5447235107422	1296.091552734375	-1324.140502929688	113.8680267333985	1331.848266601563	-1365.382934570313	103.2851715087891	1287.3408203125	-1429.42578125	199.5106964111329	1327.087280273438	-1403.371337890625	-342.0144958496094	1555.152221679688	-881.545349121094	-214.0557250976563	1393.022094726563	-759.0584106445314	-171.6197509765625	1415.404052734375	-764.2612304687501	-153.1809692382813	1360.21484375	-746.7198486328126	-112.4730682373047	1343.424072265625	-746.9085083007814	-125.1707153320313	1294.668579101563	-805.2458496093752	164.1775970458985	1337.904296875	-817.9129028320315	149.3507843017578	1286.27490234375	-758.1298217773439	242.9724273681641	1335.916259765625	-793.9141235351565	-228.3761138916016	1066.790283203125	-1128.22509765625	-252.6614837646485	1080.504272460938	-879.3521728515627	-432.5852966308595	1139.477294921875	-1020.249572753906	-433.3795166015626	1106.801147460938	-1046.832275390625	-438.5762023925782	1107.48486328125	-990.2579345703127	-296.0573120117188	817.2700195312502	-1199.773681640625	-262.5207519531251	739.6666870117189	-1188.522338867188	-216.1649475097657	745.9951782226564	-1178.092407226563	-291.1358642578126	688.4193725585939	-1170.9140625	-290.7218627929688	533.6117553710939	-1139.759887695313	-275.6301879882813	540.0432128906251	-1002.5439453125	-257.2970581054688	372.4401855468751	-1072.244140625	-302.8982238769532	322.6987304687501	-1126.867553710938	-263.7817993164063	321.1221008300782	-1101.3701171875	-277.5701293945313	247.4165191650391	-1061.358520507813	-338.7306518554688	114.2039794921875	-1095.172607421875	-310.6739196777344	134.177719116211	-1003.472351074219	-408.7532653808595	104.7942581176758	-1037.280639648438	-199.7880401611329	54.42444610595705	-1015.901916503906	-190.0968475341797	56.41841506958009	-1064.579467773438	-242.2532653808594	43.29331207275391	-1116.70458984375	-230.7290344238282	777.6166992187502	-795.9432373046877	-175.4305725097657	739.8671875000001	-795.5596313476565	-144.6013793945313	750.9160766601564	-801.979675292969	-173.3214263916016	657.4581909179689	-807.1977539062502	-164.1847076416016	572.7567138671876	-808.7814941406252	-117.4385986328125	578.2792968750001	-939.2918090820315	-118.5067977905274	464.1703186035157	-814.6253051757815	-197.6829071044922	399.1307983398439	-782.8865966796877	-153.3500213623047	387.2273254394532	-792.300720214844	-143.9802703857422	335.7005920410157	-816.7659912109377	-221.8088378906251	168.0743865966797	-796.6562500000002	-179.7765655517578	176.5660552978516	-882.591735839844	-285.0697021484376	144.6292572021485	-856.5687255859377	-70.79681396484376	82.83473968505861	-861.149841308594	-67.23999023437501	88.96885681152345	-813.4542236328127	-119.9656600952149	79.82724761962892	-766.9449462890626	
